C:\Users\r0593348\3dpredictsim\Results\batch_windlass\Pog_s1_tmt_bCst_d05_k1500_WL30_ig24_act_TTC_GRF.mot
nRows=15
nColumns=19

name C:\Users\r0593348\3dpredictsim\Results\batch_windlass\Pog_s1_tmt_bCst_d05_k1500_WL30_ig24_act_TTC_GRF.mot
datacolumns 19
datarows 15
range 0.5822456192 0.7452743926
endheader
time 	ground_force_vx	ground_force_vy	ground_force_vz	ground_force_px	ground_force_py	ground_force_pz	1_ground_force_vx	1_ground_force_vy	1_ground_force_vz	1_ground_force_px	1_ground_force_py	1_ground_force_pz	ground_torque_x	ground_torque_y	ground_torque_z	1_ground_torque_x	1_ground_torque_y	1_ground_torque_z
        0.5822456192	       86.2561364450	      390.6174390124	        2.5786301790	        0.3775916610	        0.0000000000	        0.0338425758	      -47.3883975408	       31.0572983459	       -7.4081840705	        0.8730892379	        0.0000000000	       -0.0587329716	        0.0000000000	        0.0000000000	        0.0000000000	        0.0000000000	        0.0000000000	        0.0000000000	
        0.5938905316	       53.9951205359	      289.2740703026	        5.5795097474	        0.3862549168	        0.0000000000	        0.0297041081	      -92.5628687823	       71.4872327777	      -17.9979637891	        0.8882398741	        0.0000000000	       -0.0568299368	        0.0000000000	        0.0000000000	        0.0000000000	        0.0000000000	        0.0000000000	        0.0000000000	
        0.6055354440	       31.5684930887	      205.6611717909	       15.4935429702	        0.3967468656	        0.0000000000	        0.0244604365	     -164.6457096533	      168.1918717670	      -45.5452043149	        0.8998533887	        0.0000000000	       -0.0561141142	        0.0000000000	        0.0000000000	        0.0000000000	        0.0000000000	        0.0000000000	        0.0000000000	
        0.6171803564	       22.4319262119	      161.5745282455	       15.7642336503	        0.3982066790	        0.0000000000	        0.0236118860	      -92.0507023200	      431.7758379327	       -7.3117463207	        0.9167378342	        0.0000000000	       -0.0573419521	        0.0000000000	        0.0000000000	        0.0000000000	        0.0000000000	        0.0000000000	        0.0000000000	
        0.6288252688	       14.5467346277	      106.3842400006	       13.3451817963	        0.3984179338	        0.0000000000	        0.0236522901	      -98.6260092142	      728.5517161161	       18.1184313372	        0.9258019059	        0.0000000000	       -0.0587890674	        0.0000000000	        0.0000000000	        0.0000000000	        0.0000000000	        0.0000000000	        0.0000000000	
        0.6404701812	       -1.5559201588	       43.3823457444	        8.5916831185	        0.3974149990	        0.0000000000	        0.0238892556	     -125.1939862178	      900.4250026763	       27.7883135857	        0.9328174774	        0.0000000000	       -0.0593014406	        0.0000000000	        0.0000000000	        0.0000000000	        0.0000000000	        0.0000000000	        0.0000000000	
        0.6521150935	       -0.3820893471	        0.3926250152	       -0.0039104377	        0.0000000000	        0.0000000000	        0.0000000000	     -148.9919123644	      967.8917004500	       28.3628851921	        0.9419817745	        0.0000000000	       -0.0588345357	        0.0000000000	        0.0000000000	        0.0000000000	        0.0000000000	        0.0000000000	        0.0000000000	
        0.6637600059	       -0.2371744464	        0.2068907003	       -0.0218216498	        0.0000000000	        0.0000000000	        0.0000000000	     -140.7629889291	      941.3477999981	       26.3141979667	        0.9502605915	        0.0000000000	       -0.0580462243	        0.0000000000	        0.0000000000	        0.0000000000	        0.0000000000	        0.0000000000	        0.0000000000	
        0.6754049183	        0.0217208140	       -0.0166939502	        0.0020020677	        0.0000000000	        0.0000000000	        0.0000000000	     -124.5021025269	      863.0937496678	       22.8250621652	        0.9556216039	        0.0000000000	       -0.0573662269	        0.0000000000	        0.0000000000	        0.0000000000	        0.0000000000	        0.0000000000	        0.0000000000	
        0.6870498307	        0.1459204273	       -0.1020164083	        0.0123731882	        0.0000000000	        0.0000000000	        0.0000000000	     -107.0113849521	      795.7280620308	       20.5830259184	        0.9593986777	        0.0000000000	       -0.0569474909	        0.0000000000	        0.0000000000	        0.0000000000	        0.0000000000	        0.0000000000	        0.0000000000	
        0.6986947431	        0.0318925588	       -0.0207664754	        0.0024246344	        0.0000000000	        0.0000000000	        0.0000000000	      -92.6092441944	      748.7229103915	       19.9991178151	        0.9627698228	        0.0000000000	       -0.0566668006	        0.0000000000	        0.0000000000	        0.0000000000	        0.0000000000	        0.0000000000	        0.0000000000	
        0.7103396555	       -0.1025911646	        0.0634051987	       -0.0069061646	        0.0000000000	        0.0000000000	        0.0000000000	      -80.2202663621	      716.0839256739	       20.6192055106	        0.9657956052	        0.0000000000	       -0.0564668372	        0.0000000000	        0.0000000000	        0.0000000000	        0.0000000000	        0.0000000000	        0.0000000000	
        0.7219845679	       -0.1080339732	        0.0638227399	       -0.0065499220	        0.0000000000	        0.0000000000	        0.0000000000	      -68.2905216950	      690.7427286823	       21.5929976138	        0.9686660882	        0.0000000000	       -0.0563325601	        0.0000000000	        0.0000000000	        0.0000000000	        0.0000000000	        0.0000000000	        0.0000000000	
        0.7336294802	       -0.0555703427	        0.0308607610	       -0.0035934562	        0.0000000000	        0.0000000000	        0.0000000000	      -56.8522358873	      667.6661048132	       22.2911222972	        0.9716517519	        0.0000000000	       -0.0562361699	        0.0000000000	        0.0000000000	        0.0000000000	        0.0000000000	        0.0000000000	        0.0000000000	
        0.7452743926	       -0.0291856304	        0.0153231909	       -0.0019522086	        0.0000000000	        0.0000000000	        0.0000000000	      -46.6106937026	      646.2374908246	       22.2937927897	        0.9750297755	        0.0000000000	       -0.0561462611	        0.0000000000	        0.0000000000	        0.0000000000	        0.0000000000	        0.0000000000	        0.0000000000	
